<svg width="133" height="28" viewBox="0 0 133 28" fill="none" xmlns="http://www.w3.org/2000/svg">
<path d="M31.9469 0.802454V20.7638L28.4299 21.3866L20.0706 6.79107H19.9147V22.5972L15.9207 23.4042L16.5122 0.802454H19.557L28.3978 13.6051H28.5628V0.802454H31.9469Z" fill="#21842B"/>
<path d="M35.6543 20.7638V0.513681H47.8699V3.36584H39.0567V8.46487H47.2371V12.0324H39.0567V17.2781L47.8699 16.7058L47.9433 19.6993L35.6543 20.7638Z" fill="#21842B"/>
<path d="M51.3412 0.183416H55.5048L61.0807 13.7931H61.3008L66.8767 0.183416H71.0403V18.9655H67.7754V6.06198H67.6012L62.4104 18.9104H59.971L54.7803 6.03447H54.606V19.369H51.3412V0.183416Z" fill="#21842B"/>
<path d="M77.2559 18.9655V0.183416H87.4539V3.03557H80.6583V8.13461H86.6286V10.9868H80.6583V18.9655H77.2559Z" fill="#E2E2E2"/>
<path d="M89.8774 20.176V0.183416H93.2798V18.0759L101.467 18.9104V21.7351L95.8178 21.0088L89.8774 20.176Z" fill="#E2E2E2"/>
<path d="M107.907 0.183416V23.0007L104.505 22.43V0.183416H107.907Z" fill="#E2E2E2"/>
<path d="M114.435 0L118.571 6.87819H118.718L122.872 0H126.751L120.965 9.39103L132.632 28L130.175 27.0175L127.494 26.2105L118.718 11.9497H118.571L114.435 24.6698L110.803 24.0828L113.371 16.5077L116.397 9.39103L110.537 0H114.435Z" fill="#E2E2E2"/>
<path d="M0 26.6324V1.13648H12.2157V4.43872H3.40241L3.4116 11.2986H11.482V15.3338H3.40241V22.5972L12.2891 21.3866L12.2891 24.2112L10.2715 24.6148L7.85033 25.0183L3.81512 25.8253L0 26.6324Z" fill="#21842B"/>
</svg>
